  0
SECTION
  2
ENTITIES
  0
LINE
  8
0
 10
0.000
 20
0.000
 30
0
 11
0.000
 21
0.000
 31
0
  0
LINE
  8
0
 10
0.000
 20
0.000
 30
0
 11
0.000
 21
25.000
 31
0
  0
LINE
  8
0
 10
0.000
 20
25.000
 30
0
 11
50.000
 21
25.000
 31
0
  0
LINE
  8
0
 10
50.000
 20
25.000
 30
0
 11
50.000
 21
25.000
 31
0
  0
LINE
  8
0
 10
50.000
 20
25.000
 30
0
 11
54.967
 21
25.498
 31
0
  0
LINE
  8
0
 10
54.967
 20
25.498
 30
0
 11
59.735
 21
26.973
 31
0
  0
LINE
  8
0
 10
59.735
 20
26.973
 30
0
 11
64.116
 21
29.367
 31
0
  0
LINE
  8
0
 10
64.116
 20
29.367
 30
0
 11
67.934
 21
32.582
 31
0
  0
LINE
  8
0
 10
67.934
 20
32.582
 30
0
 11
71.037
 21
36.492
 31
0
  0
LINE
  8
0
 10
71.037
 20
36.492
 30
0
 11
73.301
 21
40.941
 31
0
  0
LINE
  8
0
 10
73.301
 20
40.941
 30
0
 11
74.636
 21
45.751
 31
0
  0
LINE
  8
0
 10
74.636
 20
45.751
 30
0
 11
75.000
 21
50.000
 31
0
  0
LINE
  8
0
 10
75.000
 20
50.000
 30
0
 11
75.000
 21
50.000
 31
0
  0
LINE
  8
0
 10
75.000
 20
50.000
 30
0
 11
75.250
 21
54.992
 31
0
  0
LINE
  8
0
 10
75.250
 20
54.992
 30
0
 11
75.997
 21
59.933
 31
0
  0
LINE
  8
0
 10
75.997
 20
59.933
 30
0
 11
77.233
 21
64.776
 31
0
  0
LINE
  8
0
 10
77.233
 20
64.776
 30
0
 11
78.947
 21
69.471
 31
0
  0
LINE
  8
0
 10
78.947
 20
69.471
 30
0
 11
81.121
 21
73.971
 31
0
  0
LINE
  8
0
 10
81.121
 20
73.971
 30
0
 11
83.733
 21
78.232
 31
0
  0
LINE
  8
0
 10
83.733
 20
78.232
 30
0
 11
86.758
 21
82.211
 31
0
  0
LINE
  8
0
 10
86.758
 20
82.211
 30
0
 11
90.165
 21
85.868
 31
0
  0
LINE
  8
0
 10
90.165
 20
85.868
 30
0
 11
93.919
 21
89.166
 31
0
  0
LINE
  8
0
 10
93.919
 20
89.166
 30
0
 11
97.985
 21
92.073
 31
0
  0
LINE
  8
0
 10
97.985
 20
92.073
 30
0
 11
102.320
 21
94.560
 31
0
  0
LINE
  8
0
 10
102.320
 20
94.560
 30
0
 11
106.882
 21
96.602
 31
0
  0
LINE
  8
0
 10
106.882
 20
96.602
 30
0
 11
111.625
 21
98.178
 31
0
  0
LINE
  8
0
 10
111.625
 20
98.178
 30
0
 11
116.501
 21
99.272
 31
0
  0
LINE
  8
0
 10
116.501
 20
99.272
 30
0
 11
121.463
 21
99.875
 31
0
  0
LINE
  8
0
 10
121.463
 20
99.875
 30
0
 11
126.460
 21
99.979
 31
0
  0
LINE
  8
0
 10
126.460
 20
99.979
 30
0
 11
131.442
 21
99.583
 31
0
  0
LINE
  8
0
 10
131.442
 20
99.583
 30
0
 11
136.360
 21
98.692
 31
0
  0
LINE
  8
0
 10
136.360
 20
98.692
 30
0
 11
141.164
 21
97.315
 31
0
  0
LINE
  8
0
 10
141.164
 20
97.315
 30
0
 11
145.807
 21
95.465
 31
0
  0
LINE
  8
0
 10
145.807
 20
95.465
 30
0
 11
150.242
 21
93.161
 31
0
  0
LINE
  8
0
 10
150.242
 20
93.161
 30
0
 11
154.425
 21
90.425
 31
0
  0
LINE
  8
0
 10
154.425
 20
90.425
 30
0
 11
156.000
 21
89.000
 31
0
  0
LINE
  8
0
 10
156.000
 20
89.000
 30
0
 11
229.000
 21
12.000
 31
0
  0
LINE
  8
0
 10
229.000
 20
12.000
 30
0
 11
254.000
 21
12.000
 31
0
  0
LINE
  8
0
 10
254.000
 20
12.000
 30
0
 11
254.000
 21
12.000
 31
0
  0
LINE
  8
0
 10
254.000
 20
12.000
 30
0
 11
258.969
 21
12.479
 31
0
  0
LINE
  8
0
 10
258.969
 20
12.479
 30
0
 11
263.755
 21
13.899
 31
0
  0
LINE
  8
0
 10
263.755
 20
13.899
 30
0
 11
268.182
 21
16.208
 31
0
  0
LINE
  8
0
 10
268.182
 20
16.208
 30
0
 11
272.085
 21
19.320
 31
0
  0
LINE
  8
0
 10
272.085
 20
19.320
 30
0
 11
275.322
 21
23.121
 31
0
  0
LINE
  8
0
 10
275.322
 20
23.121
 30
0
 11
277.772
 21
27.471
 31
0
  0
LINE
  8
0
 10
277.772
 20
27.471
 30
0
 11
278.776
 21
30.117
 31
0
  0
LINE
  8
0
 10
278.776
 20
30.117
 30
0
 11
278.776
 21
30.117
 31
0
  0
LINE
  8
0
 10
278.776
 20
30.117
 30
0
 11
279.339
 21
35.059
 31
0
  0
LINE
  8
0
 10
279.339
 20
35.059
 30
0
 11
281.566
 21
39.507
 31
0
  0
LINE
  8
0
 10
281.566
 20
39.507
 30
0
 11
285.187
 21
42.919
 31
0
  0
LINE
  8
0
 10
285.187
 20
42.919
 30
0
 11
289.759
 21
44.878
 31
0
  0
LINE
  8
0
 10
289.759
 20
44.878
 30
0
 11
294.726
 21
45.146
 31
0
  0
LINE
  8
0
 10
294.726
 20
45.146
 30
0
 11
299.483
 21
43.692
 31
0
  0
LINE
  8
0
 10
299.483
 20
43.692
 30
0
 11
303.450
 21
40.690
 31
0
  0
LINE
  8
0
 10
303.450
 20
40.690
 30
0
 11
305.000
 21
38.000
 31
0
  0
LINE
  8
0
 10
305.000
 20
38.000
 30
0
 11
305.000
 21
0.000
 31
0
  0
ENDSEC
  0
EOF
