  0
SECTION
  2
ENTITIES
  0
LINE
  8
0
 10
0.000
 20
0.000
 30
0
 11
0.000
 21
0.000
 31
0
  0
LINE
  8
0
 10
0.000
 20
0.000
 30
0
 11
-100.000
 21
0.000
 31
0
  0
LINE
  8
0
 10
-100.000
 20
0.000
 30
0
 11
-100.000
 21
50.000
 31
0
  0
LINE
  8
0
 10
-100.000
 20
50.000
 30
0
 11
-100.000
 21
50.000
 31
0
  0
LINE
  8
0
 10
-100.000
 20
50.000
 30
0
 11
-100.304
 21
54.988
 31
0
  0
LINE
  8
0
 10
-100.304
 20
54.988
 30
0
 11
-101.213
 21
59.901
 31
0
  0
LINE
  8
0
 10
-101.213
 20
59.901
 30
0
 11
-102.713
 21
64.668
 31
0
  0
LINE
  8
0
 10
-102.713
 20
64.668
 30
0
 11
-104.782
 21
69.216
 31
0
  0
LINE
  8
0
 10
-104.782
 20
69.216
 30
0
 11
-107.389
 21
73.479
 31
0
  0
LINE
  8
0
 10
-107.389
 20
73.479
 30
0
 11
-110.495
 21
77.394
 31
0
  0
LINE
  8
0
 10
-110.495
 20
77.394
 30
0
 11
-114.053
 21
80.901
 31
0
  0
LINE
  8
0
 10
-114.053
 20
80.901
 30
0
 11
-118.013
 21
83.950
 31
0
  0
LINE
  8
0
 10
-118.013
 20
83.950
 30
0
 11
-122.313
 21
86.494
 31
0
  0
LINE
  8
0
 10
-122.313
 20
86.494
 30
0
 11
-126.892
 21
88.496
 31
0
  0
LINE
  8
0
 10
-126.892
 20
88.496
 30
0
 11
-131.679
 21
89.927
 31
0
  0
LINE
  8
0
 10
-131.679
 20
89.927
 30
0
 11
-136.606
 21
90.764
 31
0
  0
LINE
  8
0
 10
-136.606
 20
90.764
 30
0
 11
-141.597
 21
90.996
 31
0
  0
LINE
  8
0
 10
-141.597
 20
90.996
 30
0
 11
-146.580
 21
90.619
 31
0
  0
LINE
  8
0
 10
-146.580
 20
90.619
 30
0
 11
-151.480
 21
89.638
 31
0
  0
LINE
  8
0
 10
-151.480
 20
89.638
 30
0
 11
-156.224
 21
88.069
 31
0
  0
LINE
  8
0
 10
-156.224
 20
88.069
 30
0
 11
-160.742
 21
85.934
 31
0
  0
LINE
  8
0
 10
-160.742
 20
85.934
 30
0
 11
-164.966
 21
83.266
 31
0
  0
LINE
  8
0
 10
-164.966
 20
83.266
 30
0
 11
-168.835
 21
80.103
 31
0
  0
LINE
  8
0
 10
-168.835
 20
80.103
 30
0
 11
-172.290
 21
76.494
 31
0
  0
LINE
  8
0
 10
-172.290
 20
76.494
 30
0
 11
-175.281
 21
72.490
 31
0
  0
LINE
  8
0
 10
-175.281
 20
72.490
 30
0
 11
-177.762
 21
68.153
 31
0
  0
LINE
  8
0
 10
-177.762
 20
68.153
 30
0
 11
-179.698
 21
63.546
 31
0
  0
LINE
  8
0
 10
-179.698
 20
63.546
 30
0
 11
-181.058
 21
58.738
 31
0
  0
LINE
  8
0
 10
-181.058
 20
58.738
 30
0
 11
-181.824
 21
53.800
 31
0
  0
LINE
  8
0
 10
-181.824
 20
53.800
 30
0
 11
-182.000
 21
50.000
 31
0
  0
LINE
  8
0
 10
-182.000
 20
50.000
 30
0
 11
-182.000
 21
50.000
 31
0
  0
LINE
  8
0
 10
-182.000
 20
50.000
 30
0
 11
-182.328
 21
45.014
 31
0
  0
LINE
  8
0
 10
-182.328
 20
45.014
 30
0
 11
-183.308
 21
40.115
 31
0
  0
LINE
  8
0
 10
-183.308
 20
40.115
 30
0
 11
-184.922
 21
35.387
 31
0
  0
LINE
  8
0
 10
-184.922
 20
35.387
 30
0
 11
-187.143
 21
30.911
 31
0
  0
LINE
  8
0
 10
-187.143
 20
30.911
 30
0
 11
-189.931
 21
26.765
 31
0
  0
LINE
  8
0
 10
-189.931
 20
26.765
 30
0
 11
-193.240
 21
23.021
 31
0
  0
LINE
  8
0
 10
-193.240
 20
23.021
 30
0
 11
-197.011
 21
19.743
 31
0
  0
LINE
  8
0
 10
-197.011
 20
19.743
 30
0
 11
-201.179
 21
16.988
 31
0
  0
LINE
  8
0
 10
-201.179
 20
16.988
 30
0
 11
-205.673
 21
14.804
 31
0
  0
LINE
  8
0
 10
-205.673
 20
14.804
 30
0
 11
-210.414
 21
13.229
 31
0
  0
LINE
  8
0
 10
-210.414
 20
13.229
 30
0
 11
-215.321
 21
12.289
 31
0
  0
LINE
  8
0
 10
-215.321
 20
12.289
 30
0
 11
-220.000
 21
12.000
 31
0
  0
LINE
  8
0
 10
-220.000
 20
12.000
 30
0
 11
-300.000
 21
12.000
 31
0
  0
ENDSEC
  0
EOF
